<mxfile host="app.diagrams.net" modified="2024-01-14T17:49:41.471Z" agent="Mozilla/5.0 (Windows NT 10.0; Win64; x64) AppleWebKit/537.36 (KHTML, like Gecko) Chrome/120.0.0.0 Safari/537.36" etag="uClPuM_tBKPR9wyibrgz" version="22.1.18" type="github">
  <diagram name="Page-1" id="1t88Hg23aQtCHegYaW_N">
    <mxGraphModel dx="2206" dy="1148" grid="1" gridSize="10" guides="1" tooltips="1" connect="1" arrows="1" fold="1" page="1" pageScale="1" pageWidth="850" pageHeight="1100" math="0" shadow="0">
      <root>
        <mxCell id="0" />
        <mxCell id="1" parent="0" />
        <mxCell id="WCyTxkRo7AWVwZsTxRD0-24" style="edgeStyle=orthogonalEdgeStyle;rounded=0;orthogonalLoop=1;jettySize=auto;html=1;entryX=0;entryY=0.5;entryDx=0;entryDy=0;" edge="1" parent="1" source="WCyTxkRo7AWVwZsTxRD0-1" target="WCyTxkRo7AWVwZsTxRD0-7">
          <mxGeometry relative="1" as="geometry" />
        </mxCell>
        <mxCell id="WCyTxkRo7AWVwZsTxRD0-25" style="edgeStyle=orthogonalEdgeStyle;rounded=0;orthogonalLoop=1;jettySize=auto;html=1;entryX=0.5;entryY=0;entryDx=0;entryDy=0;" edge="1" parent="1" target="WCyTxkRo7AWVwZsTxRD0-11">
          <mxGeometry relative="1" as="geometry">
            <mxPoint x="240" y="110.02127659574467" as="sourcePoint" />
            <Array as="points">
              <mxPoint x="352.5" y="110" />
              <mxPoint x="352.5" y="30" />
              <mxPoint x="747.5" y="30" />
            </Array>
          </mxGeometry>
        </mxCell>
        <mxCell id="WCyTxkRo7AWVwZsTxRD0-1" value="" style="shape=image;verticalLabelPosition=bottom;labelBackgroundColor=default;verticalAlign=top;aspect=fixed;imageAspect=0;image=data:image/png,iVBORw0KGgoAAAANSUhEUgAAAgAAAAIACAYAAAD0eNT6AAAACXBIWXMAAA7DAAAOwwHHb6hkAAAAGXRFWHRTb2Z0d2FyZQB3d3cuaW5rc2NhcGUub3Jnm+48GgAAIABJREFUeJzt3XmUnVWZ7/FvnZpCpSoBTCqQBCgyMaeKMalAKlWVqgAKAgEZhIRJFHrdtru9Kg7dep2vqFe71avdiqgQQCa1HVuFTEgIzdAyBxwuJARBTIBUgCSkcv84sQVlqNTe57zvOfv7WStL/6nnPImu8/5q7+fdGyRJkiRJkiRJkiRJkiRJkiRJkiRJkiRJkiRJkiRJkiRJkiRJkiRJkiRJkiRJkiRJkiRJkiRJkiRJkiRJkiRJkiRJkiRJkiRJkiRJkiRJkiRJkiRJkiRJkiRJkiRJkiRJen01WTdQJcYB3cBMYD9gb2AsMBJoyK4tSapom4GNwB+A3wIPArcCi4EnM+yrKhgAhm9X4AxgIXA4/ltKUrlsA1YClwNXAeuzbacy+dDaceOBdwNvp/gbviQpOwPAvwKfAx7PuJeKUpt1AxWkDvhb4AZgDi7tS1IeNACzgIu2//dbgK2ZdlQhXAEYmqnAd4CDs25EkvSa7gBOA36TdSN5V8i6gQpwAnA7PvwlqRIcCtwJHJ91I3nnFsBrOxu4Atgp60YkSUPWCJwK/J7iioBegQHg1b0NuBT/jSSpEhWA44A1wF0Z95JLzgC8shOA6/HhL0mV7kVgPvCDrBvJGwPAX5tCccloVNaNSJKi2EDxvJZVWTeSJw4Bvlw9cA0+/CWpmrQAiyi+zq3tXOJ+uXcDC7JuQpIU3XjgGWBF1o3khVsAfzae4vJQc9aNSJJKYgMwjeLbAclzC+DP3o0Pf0mqZi3Au7JuIi9cASjaFXgUz/aXpGo3AOyJFwi5ArDdW/HhL0kpaAZOz7qJPHAFoGglcESMQvvtfwBnnrWQru5u9thzL5qammKUlaTkPPfcc6x+9BGWLVnCFZd/iwcfuD9W6RUULxBKmgEAxlG8QjLo36KhsZGPfeJTLDznPAoFF1YkKaatW7fyrcsu5UP/+AG2bN4cWm4bxe/+P4R3VrkMAMVbo64OKdDQ2MjV11zPkbO7IrUkSXolNy9byumnnhwjBJwKXBuhpYrlOQDFM/9nhhT41CWf5fgTTorUjiTp1ey5VxujR+/Mjb/4WWip1UBwkUrmWjXsG/LD++1/AAvOPjdWL5Kk13HOeeczbZ+gr26AfWL0UskMADA15IfPPGuhe/6SVEa1tbWcuWBhaJmg7/5q4JMLdg754Tk9PbH6kCQNUXdPb2iJXWL0UckMAMWToYZtwsQ9YvUhSRqiiXvsGVoi+UvfDADQEPLDI0d6fpAklVtzc/DJ7Y0x+qhkBgBJkhJkAJAkKUEGAEmSEmQAkCQpQQYASZISZACQJClBBgBJkhJUl3UDerkH7r+PRZd/i2VLl7L60Ud47rnnsm5JkoalqamJPfbci67ubs5acDb77rd/1i3pJbwOuHgv9LA9se7ZKE1s3rSJf/rg+/n2N7/B4OBglJqSlBe1tbWcfe75fPTjn6S+Iej8tf82btfgw/ySfgYm/ZffLvMAsHnTJk4/9WR+uXxZcC1JyrOjuuZw9TXXRwkBBoAwzgDkwD9+4H0+/CUl4eZlS/nwP30g6zZE4ulnu0xXAB64/z56u4502V9SMmpra1m8/Bb22Xe/oDquAIRxBSBjiy7/lg9/SUnZunUriy7/dtZtJM8AkLGlS5Zk3YIkld3SJYuzbiF5BoCMPbZmddYtSFLZrVn9aNYtJM8AkLGNGzdm3YIkld3AwEDWLSTPACBJUoIMAJIkJcgAIElSggwAkiQlyAAgSVKCDACSJCXIACBJUoLqsm5AYQ79yu+zbkFSou64aLesW1AAVwAkSUqQAUCSpAQZACRJSpABQJKkBBkAJElKkAFAkqQEGQAkSUqQAUCSpAQZACRJSpABQJKkBBkAJElKkAFAkqQEGQAkSUqQAUCSpAQZACRJSpABQJKkBBkAJElKkAFAkqQEGQAkSUqQAUCSpAQZACRJSpABQJKkBBkAJElKkAFAkqQEGQAkSUqQAUCSpAQZACRJSpABQJKkBBkAJElKkAFAkqQEGQAkSUqQAUCSpAQZACRJSpABQJKkBBkAJElKkAFAkqQEGQAkSUqQAUCSpAQZACRJSpABQJKkBBkAJElKkAFAkqQEGQAkSUqQAUCSpAQZACRJSpABQJKkBBkAJElKkAFAkqQEGQAkSUqQAUCSpAQZACRJSpABQJKkBBkAJElKkAFAkqQEGQAkSUqQAUCSpAQZACRJSpABQJKkBBkAJElKkAFAkqQEGQAkSUqQAUCSpAQZACRJSpABQJKkBBkAJElKkAFAkqQEGQAkSUqQAUCSpAQZACRJSpABQJKkBBkAJElKkAFAkqQEGQAkSUqQAUCSpAQZACRJSpABQJKkBBkAJElKkAFAkqQEGQAkSUqQAUCSpAQZACRJSpABQJKkBBkAJElKkAFAkqQEGQAkSUqQAUCSpAQZACRJSpABQJKkBBkAJElKkAFAkqQEGQAkSUqQAUCSpAQZACRJSpABQJKkBBkAJElKkAFAkqQEGQAkSUqQAUCSpAQZACRJSpABQJKkBBkAJElKkAFAkqQEGQAkSUqQAUCSpAQZACRJSpABQJKkBBkAJElKkAFAkqQEGQAkSUqQAUCSpAQZACRJSpABQJKkBBkAJElKkAFAkqQEGQAkSUqQAUCSpAQZACRJSpABQJKkBBkAJElKkAFAkqQEGQAkSUqQAUCSpAQZACRJSpABQJKkBBkAJElKkAFAkqQEGQAkSUqQAUCSpAQZACRJSpABQJKkBBkAJElKkAFAkqQEGQAkSUqQAUCSpAQZACRJSpABQJKkBBkAJElKkAFAkqQEGQAkSUqQAUCSpAQZACRJSpABQJKkBBkAJElKkAFAkqQEGQAkSUqQAUCSpAQZACRJSpABQJKkBBkAJElKkAFAkqQEGQAkSUqQAUCSpAQZACRJSpABQJKkBBkAJElKkAFAkqQEGQAkSUqQAUCSpAQZACRJSpABQJKkBBkAJElKkAFAkqQEGQAkSUqQAUCSpAQZACRJSpABQJKkBBkAJElKkAFAkqQEGQAkSUqQAUCSpAQZACRJSpABQJKkBBkAJElKkAFAkqQEGQAkSUqQAUCSpAQZACRJSpABQJKkBBkAJElKkAFAkqQEGQAkSUqQAUCSpAQZACRJSpABQJKkBBkAJElKkAFAkqQEGQAkSUqQAUCSpAQZACRJSpABQJKkBBkAJElKUF3WDSjMHRftlnULkqQK5AqAJEkJMgBIkpQgA4AkSQkyAEiSlCADgCRJCTIASJKUIAOAJEkJMgBkrLm5OesWJKnsWlpasm4heQaAjI2fMDHrFiSp7CZM3CPrFpJnAMjYnJ6erFuQpLLr7unNuoXkGQAydtaCs6mtrc26DUkqm9raWs5csDDrNpJnAMjYvvvtz9nnnp91G5JUNue97QKm7bNv1m0krybrBnJgW8gPP7Hu2eAGtmzezBmnncLypUuCa0lSnnXN6eHKa66jvr4+uNa4XUeFlkj6GegKQA7UNzRw1Xeu4/wL3u52gKSqVFtbywXvuDDaw1/hkk4/22W+AvBSqx58gEWXf5ulSxaz+tFH2LhxY9T6klQuI0eOZI8996K7p5czFyyMvuzvCkCYpP/y2+UqAEiShsYAEMYtAEmSEmQAkCQpQQYASZISZACQJClBBgBJkhJkAJAkKUEGAEmSEmQAgOdDfnhgYCBWH5KkIdqwYUNoiedi9FHJDACwLuSH1z62JlYfkqQhWrP60dASQd/91cAAEPh/gqWLF8fqQ5I0REsW3xRa4qkYfVQyAwD8PuSHr7j8W2zdujVWL5Kk17F161auvOLy0DJPxOilkhkA4PaQH37wgfv51mWXxupFkvQ6vvH1r/HQqgdDy/xnjF4qmXfPQhNwRkiBZUuXcPjhR7BXW1ucjiRJr2jZ0sW8828uZHBwMLTUJcDDEVqqWK4AwK0E3gi4ZfNmzjjtFC792r+5HSBJJbB161a+9tWv8NZTT2HLli2h5bZR/O5PWtJXIb7EEmBOjEL77Lsfbz1rAd09vUzcY0+am5tjlJWk5AwMDLD60UdYsvgmrrzi8hjL/n+yGOiNVaxSGQCKzgEuy7oJSVJZLASCpwgrnQGgaCTwONCSdSOSpJIaAHbf/p9JcwagaCPw1aybkCSV3Jfx4Q+4AvBSO1OcCB2TdSOSpJJ4CpgCPJN1I3nga4B/9sL2P8dm3YgkqSQuBpZn3UReuAXwZ+OAWVk3IUkqmSOB1qybyAtXAIrbIAuB7wNHZNyLJKl0DgQuoLja+58EngFT6VKfAWgFrgTmZt2IJKmsfg6cCfwh60ayknIAOBy4Ftgr60YkSZl4DDgN+GXWjWQh1S2Aiyg+/HfNuhFJUmZGAQuAJ4E7Mu6l7FIMABcDnyfNv7sk6eVqgeOAnYBfZNxLWaX0EKwBPgN8KOtGJEm5cxTwBuCnWTdSLikFgM8C7866CUlSbs0AGoEbs26kHFIJABcCn8i6CUlS7h0FrAdWZt1IqaUQAOYD3yTtNx4kSUM3D7gbiHb/cB5V+0NxCsXJzlFZNyJJqigDwGHAqqwbKZVqDgCNwC3AIaX8kNraWg455FAOOfQQDjjwIPbYYw922213mpqa2GmnnUr50ZJU9Z5//nk2btzIE0/8ntWrV3Pfvfdwxx13cNedd7J169ZSf/ztFI8P3lzqD8pCNQeAzwN/X6ri++23P2ctWMDRxxzLqFEuMEhSOT377LPc+Iufc8P113PbbSvZtq1kp/p+jiodIK/WAHAEsIISXHZ0zDHHcs5553PIISVdWJAkDdEDD9zPV778ZX7605+UovwgxbcDbi9F8SxVYwAoUFz6nxGz6J577smHP/JRZs/uillWkhTJypW38uEP/RO//c1vYpe+neIzZTB24SxV41sAb6N41G8UhUKBd1x4EV/4ly8yadLkWGUlSZFNnDiRU95yKoODg9x5R9STfccDq4G7YhbNWrWtAIwAfgfsFqXYiBFc8tnPccwxx8YoJ0kqkx//+Edc/J53s2nTplglHwcmUbxKuCpU2wrAO4BTYxTaeedd+NrXv0FX15wY5SRJZTR16jRmHXkkN914I88//3yMki0Ubw+smlmAaloBqAceAtpCC+2yyy5cdfU1TJrskr8kVbKHHnqI0089hYGBgRjlfgvsA7wYo1jWok/JZ+gtRHj4NzY28rWvf8OHvyRVgWnTpvGFf/4XamujLHhPAk6JUSgPqmkL4LNA8FP7ox//BL29cyO0I0nKg73a2hg9ejTLli6NUa4FuCJGoaxVywrA7kDwU7uvr5+3vCXKCIEkKUcWLDybo485JkapPiINmmetWgLAGQSuZowePZqPfeKTkdqRJOXNhz78EVpaWkLL1AJvjdBO5qolAJwWWuDCi/6GN7zhDTF6kSTl0NixY3nHhVGOiQl+5uRBNbwFMIHiAQ3D/ruMHTuWm5Yso7GxMV5XkqTceeGFF+jt7uKpp54KKbMN2IPia4EVqxpWAE4kMMictWChD39JSsCIESN465lnhZapAd4coZ1MVUMAOCHkhwuFAiefUjVvdUiSXsdpp50e47XAoGdPHtRl3UCg0UDQUX0zZs6ktXVcpHbCrXrwQa6++ipuXbGCtWsfi3WClSSV3U477cSECROZ2dnJ6aefwbR99sm6JQDGtrZyxIwZrLjllpAyPRSfQc/E6ar8Kv0cgFMoHgA0bBdc8HYOOmh6pHaGb9OmTXz8Yx/hgx94P3ff/SvWr1/Hiy9WxWFTkhL14osvsm7dOu6++1dcddWVrPvjH+mcNYu6uux/93z+uedZsmRxSIla4G7g3jgdlV+lbwEELcHU1NTQk4NDfzZt2sT5557DlYsWsW3btqzbkaTotm3bxqJFV3DB285j8+bNWbdDX38fNTXBc/AVvQ1QyQGgEQg61aG9vYPddsv+PIdPfPxj3HbbyqzbkKSSu3XFCj71iY9n3QatreOYPr09tMybKN5CW5EqOQD0UTyScdjm9vVHamX4Vj34INd85+qs25Cksrnqqit5aNWqrNugrz/4GdBMcRagIlVyAAheeukP/x8/2He+czWDg4NZtyFJZTM4OMg113wn6zZiBACo4G2ASg0ABeD4kAJtbW25uPFvyeKgIRRJqkg33Xhj1i0wefIU9p40KbTMiVTos7QimwY6CbyMIdKlEEHWrl3LmjWrs25DkspuzZrVPPZY9gfp9ffPCy0xDpgRoZWyq9QAELzkkof9/1tXBL2DKkkV7baVt2bdAnP7+mKUqchtgCQDwJgxY2JMfwa77bbbsm5BkjKTh7ef2ts7GNvaGlpmfoxeyq0SA8ABwLSQAv3zjqZQyP6vvjIH6VeSsrLy1uwDQKFQYO7c4FWAqcB+Edopq+yfgjvuxNACkZZ8gqxdu5bH1qzJug1Jykxe5gD64jwTgp9N5VaJASBo+X/kyJHMnNkZq5dhc/9fkvIxBzCzcxbNzc2hZSpuDqDSAsAE4LCQAt09vTQ0NERqZ/jc/5ekfMwBNDQ00DWnO7TMEcDE8G7Kp9ICwIkU72EetkhLPcHc/5ekfMwBAPSFvxlWQ+D5NOVWaQEgaImlrq6O2V1BtwdH4f6/JBXlZQ5gTnc39fX1oWUqahsg+zsZh240EPT0njXrSEaNGhWpneGLsf9/7Q3fjXKR0exZYfMQy29ZEdxDCPu3/xD2H97/k088wcknhc2/3bbyVk6af3JwLyFaWlqYObOT5cuXhZTpBXYGno7TVWlV0grAcUDQ5n0epv8hfP9/9/Hjc3GLoSS1jhvH7uPHB9XIwxwARDkgrh44NkIrZVFJASBoaaWmpoae3rmxegkSuv9/8MGHROpEksKFfiflZg6gv4+amqAxM6igbYBKCQCNQNDh/e3tHbn4rTnG/n/HwQdH6kaSwoV+J+VlDqC1dVyMU2LfBIyI0E7JVUoA6ANaQgrk4ex/iLP/f/AhrgBIyo9DDz00uEYezgOAKFcENwM9EVopuUoJAMFLKv1x7n0O5v6/pGpTTXMAEQIAVMg2QCUEgAKB71a2tbUxafLkSO2Ecf9fUjWqljmAyZOnsPekSaFlTqQCnq+5bxDoBIJ+5T36mKDxgWjc/5dUraplDgCgv39eaIlxwIwIrZRUJQSA4KUU9/8lqbSqaQ4g0ivjud8GqPoAMGbMmBhTnVG4/y+pWlXTHEB7ewdjW1tDy8yP0Usp5T0AHABMCynQP+9oCoV8/DXd/5dUzaplDqBQKDB3bvAqwFRgvwjtlEw+noyvLvh+5byc/uf+v6RqV01zAJEujgt+hpVS3gNA0PL/yJEjmTkz7KzsWNz/l1TtqmkOYGbnLJqbm0PL5HoOIM8BYAJwWEiB7p5eGhqCrg+Ixv1/SdWumuYAGhoa6JrTHVrmCGBieDelkecAcCLF+5WHLdISThTu/0tKQbXMAQD0hb9BVkPgOTallOcAELR0UldXx+yuoNuDo3H/X1IqqmkOYE53N/X19aFlcjsHEHztUYmMBp4k4Prfrq45fP0bl8XrKMAN11/H+y5+b9ZtSFJF+PQln+Gk+Sdn3QYA5597DsuXLwspsYXiwUDr43QUT15XAI4j4OEP+Zn+h/D9f0lKSV7mACDKQXL1wLERWokurwEgaPm/pqaGnt65sXoJFrr/L0kpydUcQH8fNTXBi+W5fBsgjwGgEQg6vL+9vSM3E/Mx9v8lKSV5mgNobR0X4zTZNwIjIrQTVR4DQB/QElIgL2f/Q5z3/yUpNXk5DwCiXBHcDPRGaCWqPAaA4KWS/jj3OUfh/r8k7bg8zQFECACQw22AvAWAAoHvTLa1tTFp8uRI7YRz/1+Sdlye5gAmT57C3pMmhZY5gZw9c3PVDNAJBG3ezzs6aHwgKvf/JWl48jQHAFEOBRoHzIzQSjR5CwDBSyR5ev3P/X9JGr48zQFEmi3L1TZAVQWAMWPG0N7eEauXYO7/S9Lw5WkOoKOjg7GtraFl5sfoJZY8BYADgGkhBfr651Eo5Oev5P6/JA1fnuYACoUCveHny0wB9o/QThT5eVpGOC85T5f/uP8vSWGqcA4AcnQ3QJ4CQNDyf1NTEzNmdsbqJZj7/5IULk9zAJ2zZtHc3BxaJjdzAHkJABOAw0IKdPf00tjYGKmdcO7/S1K4PM0BNDQ00BV+y+zhwMQI7QTLSwA4kcCbCSMtzUTj/r8khcvTHABEeRugBnhzhFaC5SUABC2J1NXV0TUnOJVF4/6/JMWRtzmA7p4e6uvrQ8vkYhugLusGgNFA0NO7s3MWo0aNitROuBj7/9fe8N2yXGg0e1bY3MTyW1ZE6mR47N/+Q9h/6ft/8oknOPmksLm321beyknzT47UUZiWlhZmzJjJzTcvDynTA+wCrI/T1fDkYQXgOKAhpECeLv+B8P3/3cePz81thpIUonXcOHYfPz6oRp7mAADmht8NUA8cG6GVIHkIAEFLITU1NfTODX43M6rQ/f+DDz4kUieSlL3Q77S8zQH09/dTUxM0tgY52AbIOgA0AkGH90+f3p6r35Zj7P93HHxwpG4kKXuh32l5mwNobR3HQdOnh5Z5IzAiQjvDlnUA6ANaggrk6OpfiLP/f/AhrgBIqh6HHnpocI08nQcAUd48awZ6I7QybFkHgOAlkLwFAPf/JenlqnEOINKzJ9NtgCwDQAE4PqRAW1sbkydPidROHO7/S9Jfq7Y5gClTprL3pEmhZU4gw+dwlgGgEwj6VXfe0UHjA9G5/y9Jr6za5gAgyjbAOGBmhFaGJcsAELz0MTdHl/+A+/+S9GqqcQ4g0ivomW0DVGwAGDNmDO3tHbF6icL9f0l6ZdU4B9DR0cHY1tbQMvNj9DIcWQWAA4BpIQX6+udRKGQ9w/hy7v9L0qurtjmAQqFAb2/wOTRTgP0jtLPDsnqCBt+H3Jez5X/3/yXptTkH8KqCn4nDkVUACFr+b2pqYsbMsDOwY3P/X5JeWzXOAXTOmkVzc3NomUzmALIIABOAw0IKdPf00tjYGKmdONz/l6TXVo1zAA0NDXR1Bd9GezgwMUI7OySLAHAixfuQhy3SkktU7v9L0uurtjkAiPI2QA3w5git7JAsAkDQUkddXR1dc4LTVlTu/0vS0FTjHEB3Tw/19fWhZcq+DRB8ndEOGg08ScD1v7Nnd3HpZd+M1lAMN1x/He+7+L1ZtyFJSfj0JZ/hpPknZ93Gy5x3ztncfPPykBJbKB4MtD5OR6+v3CsAxxHw8IdoBy9EFbr/L0kaurzNAQDMDb8boB44NkIrQ1buABC0xFFTU0Pv3OB3LqML3f+XJA1dHucA+vv7qakJXlQv6zZAOQNAIxB0eP/06e25m5SPsf8vSRq6PM4BtLaO46Dp00PLvBEYEaGdISlnAOgDWoIK5OzqX4jz/r8kacfk7TwAiPKGWjPQG6GVISlnAAhe2shjAHD/X5LKL49zAJGeUWXbBihXACgAx4cUaGtrY/LkKZHaiee+++7NugVJSs699+bvu3fKlKnsPWlSaJkTKNOzuVwBoBMI2ryfd3TQ+EDJrH700axbkKTk5HX2KsI2wDhgZoRWXle5AkDwksbcnF3+8ye1tbVZtyBJycnrd2+kV9XLsg1QEQFgzJgxtLd3xOolqry9lSBJKRiX0+/ejo4Oxra2hpaZH6OX11OOAHAAMC2kQF//PAqFrC4ufG1dc7qzbkGSkjMnp9+9hUKB3t7g82qmAPtHaOc1leOpGnzPcV9Ol/8B5p98Sm6XoiSpGtXW1nLiSWX5JXlYIl1YF/zsfD3lCABBy/9NTU3MmNkZq5fopk6dyoKFZ2fdhiQlY8HCs5k6dWrWbbyqzlmzaG5uDi1T8jmAUgeACcBhIQW6e3ppbGyM1E5pvOe9F8dY8pEkvY7Zs7v4n+9+T9ZtvKaGhga6uoJvrT0cmBihnVdV6gBwIoE3DkZaSimp+vp6/vmLX+Lcc89zO0CSSqC2tpZzzzufr/zrv+X+l0KI8jZADfDmCK285geU0s+AYf8r1NXVcetttzNq1KiILZXWww8/zPXXXcsvf3kzax97jA0bNmTdkiRVpJaWFsZPmMBRR83m5FNOYcqU/C77/6UNGzYw84jD2LJlS0iZnwFHR2rpr5QyAIwGniTg+t/Zs7u49LJvRmtIkqRyOe+cs7n55uUhJbZQPBhofZyOXq6UWwDHEfDwh2gHKkiSVHZzw+8GqAeOjdDKKyplAAiaYKypqaF3roN1kqTK1N/fT01N8EJ7yd4GKFUAaASCDu+fPr3dU/YkSRWrtXUcB02fHlrmjcCICO38lVIFgD6gJahADq/+lSRpR0R4k60Z6I3Qyl8pVQAIXrIwAEiSKl2kZ1lJtgFKEQAKwPEhBdra2pg8eUqkdiRJysaUKVPZe9Kk0DInUILndSkCQCcQtHk/7+ig8QFJknIjwjbAOGBmhFZephQBIHipYm6OL/+RJGlHRHqlPfo2QO4CwJgxY2hv74jViyRJmero6GBsa2tomejXH8YOAAcA00IK9PXPo1AoxyWFkiSVXqFQiHFh3BRg/wjt/LfYT9rg+4v7XP6XJFWZSBfbBT9jXyp2AAha/m9qamLGzM5YvUiSlAuds2bR3NwcWibqHEDMADABOCykQHdPb0Vc8yhJ0o5oaGigq2tOaJnDgYkR2gHiBoATCbxdMNISiSRJuRPhbYAa4M0RWgHiBoCgpYm6ujq65gSnI0mScqm7p4f6+vrQMtG2AYKvKdpuNPAkgdf/SpKk17SF4sFA60MLxVoBOA4f/pIklVo9cGyMQrECQMnuK5YkSS8T5ZkbYwugEfgDgdf/SpKkIRkAxgIvhBSJsQLQhw9/SZLKpRnoDS0SIwAcF6GGJEkauuNDC8QIAL67J0lSeQU/e2PMADwH7BShjiRJGprngaaQAjFWAGoj1JAkSUMX/PyOEQAGItSQJElD92xogRgBYEOEGpIkaegMAJIkJSj42RsjADweoYYkSRq634cWiBHQFgrLAAAFO0lEQVQAHopQQ5IkDd2q0AIxAkBwE5IkaYcYACRJSlDwszfGQUBjgCcICBOnvOVU/u4f/iFCK5Ik5dsXPv9/uP7aa0NKDFK8DGhdSJEYKwBPAfeEFPiPn/6ETZs2RWhFkqT8euH55/mPn/wktMxdBD78IU4AALgp5Ic3bNjAv3//e5FakSQpn773ve8yMBB8ft6NMXrJRQAAWHT5FWzcuDFGL5Ik5c7GgQGuWrQoRqnFMYrECgC/AJ4OKfDHPz7FV7/yfyO1I0lSvnz5S19i3brglfv15CwAvABcF1rk+9/9LnfecXuEdiRJyo//uusufviDf49R6mogytBcrAAA8O3QAtu2beOzn/kMG8P3RyRJyoWBgQE+/alPsm3bthjlrohRBOIGgJuBX4cWWf3oo3zg/e9ny5YtEVqSJCk7W7Zs4QPvu5g1a9bEKLcKWBGjEEBtrELbbQKODy3y+ONrWbNmNV1zuqmpiXFUgSRJ5TU4OMhH/9eHWXHLLbFKXkzxFcAoYgeAe4FzgFGhhX7329/y1B/+wMzOTgqFmAsVkiSV1pYtW7jkf3+Kn//sZ7FKPgK8jeIhQFHEDgBbgW3AMTGKPfTQQ9x5xx3MOvIodtpppxglJUkqqWeeeYb3vfc9LF+2LGbZDwIrYxaMHQAA/gs4A9g1RrEnn3iCJUsWc+CBBzF27NgYJSVJKon777uPd/393/Hrhx+OWfYh4O0Uf8mOplQb7EcDP41ZsKamhnlHH8P/eOc72XnnnWOWliQpyLPPPstll17KDddfx+BgtFX6P3kjEHx+8F8q5YTd9cD82EVHjRrFWQsX8sY3Hcfo0aNjl5ckacieefppfvTDH7Loist59tlnS/ER1wCnlaJwKQPAROBXRNoK+EsNDQ30zp3L8W8+gQMPOshBQUlSWQwODnLvPffw/e99jyWLb2Lz5s2l+qingHZgbSmKl/odu+OB75f6c5qamjjwoINob+9g2j77sPMuO7PLLrsyevRoRowYUcqPliRVqRdeeIFnnnmG9evX8fT6p1m16kHu/tWvuPeee3juuedK/fHbgOOAH5fqA8rxkv3ngHeV4XMkSaoWnwbeV8oPKEcAqKd4WVBXGT5LkqRKt5jiMH1Jj8Qt1zF7o4ClQEeZPk+SpEp0D8VfmINu2B2Kcp6zOx74JdBWxs+UJKlS/A44Eni8HB9WztH5tUA/8P/K+JmSJFWC31F8Rpbl4Q/lDQBQvC2wk+JpgZIkqXiPzmzgN+X80Cxenv890ANEPSRZkqQKtBg4Cnis3B9cirsAhuIF4AqK7zl2Ud5ZBEmSsrYN+CKwECj5oQKvJA8P3uOBb1KiEwMlScqZPwJnAz/Ksok8nJ/7A4pHHV6fdSOSJJXYNcB0Mn74Qz5WAF6qF/gysG/WjUiSFNGvgb8l8k25IbKaAXg1vwMuBZ4EDgS87k+SVMkeAT4IXACsyriXl8nbCsBLNVAcjngPMC3jXiRJ2hGrgEuAyynxkb7DlecA8FKHUgwDbwXGZNyLJEmv5GmKc23fBm6kOOmfW5USAP5kBMUzBHq3/+kgH4OMkqT0DAJ3ATdt/7MY2JRpRzug0gLAX9oVOJjiFsG+wD5AK8XZgdFAC8WtBEmSdtRmYAPwzPY/TwIPUlzef4jiw39dZt1JkiRJkiRJkiRJkiRJkiRJkiRJkiRJkiRJkiRJkiRJkiRJkiRJkiRJkiRJkiRJkiRJkiRJkiRJkiRJkiRJkiRJkiRJkiRJkiRJkiRJkiRJkiRJkiRJkiRJkiRJkiRJklQG/x8g1d4ZCHGzyQAAAABJRU5ErkJggg==;" vertex="1" parent="1">
          <mxGeometry x="47.5" y="50" width="120" height="120" as="geometry" />
        </mxCell>
        <mxCell id="WCyTxkRo7AWVwZsTxRD0-5" value="" style="shape=image;verticalLabelPosition=bottom;labelBackgroundColor=default;verticalAlign=top;aspect=fixed;imageAspect=0;image=https://logos-world.net/wp-content/uploads/2021/02/Docker-Symbol.png;" vertex="1" parent="1">
          <mxGeometry x="130" y="20" width="124.44" height="70" as="geometry" />
        </mxCell>
        <mxCell id="WCyTxkRo7AWVwZsTxRD0-27" style="edgeStyle=orthogonalEdgeStyle;rounded=0;orthogonalLoop=1;jettySize=auto;html=1;entryX=0.5;entryY=0;entryDx=0;entryDy=0;" edge="1" parent="1" source="WCyTxkRo7AWVwZsTxRD0-7" target="WCyTxkRo7AWVwZsTxRD0-21">
          <mxGeometry relative="1" as="geometry" />
        </mxCell>
        <mxCell id="WCyTxkRo7AWVwZsTxRD0-7" value="ECR Image" style="shape=image;verticalLabelPosition=bottom;labelBackgroundColor=default;verticalAlign=top;aspect=fixed;imageAspect=0;image=https://miro.medium.com/v2/resize:fit:908/1*w4N8NNxnCo-qhADUe5BsGQ.png;fontSize=22;fontStyle=0" vertex="1" parent="1">
          <mxGeometry x="420" y="65" width="89.8" height="90" as="geometry" />
        </mxCell>
        <mxCell id="WCyTxkRo7AWVwZsTxRD0-8" value="User" style="shape=image;verticalLabelPosition=bottom;labelBackgroundColor=default;verticalAlign=top;aspect=fixed;imageAspect=0;image=https://static-00.iconduck.com/assets.00/user-icon-2048x2048-ihoxz4vq.png;fontSize=22;" vertex="1" parent="1">
          <mxGeometry x="45" y="930" width="110" height="110" as="geometry" />
        </mxCell>
        <mxCell id="WCyTxkRo7AWVwZsTxRD0-30" value="" style="edgeStyle=orthogonalEdgeStyle;rounded=0;orthogonalLoop=1;jettySize=auto;html=1;" edge="1" parent="1" source="WCyTxkRo7AWVwZsTxRD0-9" target="WCyTxkRo7AWVwZsTxRD0-29">
          <mxGeometry relative="1" as="geometry" />
        </mxCell>
        <mxCell id="WCyTxkRo7AWVwZsTxRD0-9" value="Admin" style="shape=image;verticalLabelPosition=bottom;labelBackgroundColor=default;verticalAlign=top;aspect=fixed;imageAspect=0;image=https://static-00.iconduck.com/assets.00/user-icon-2048x2048-ihoxz4vq.png;fontSize=22;" vertex="1" parent="1">
          <mxGeometry x="47.5" y="522" width="110" height="110" as="geometry" />
        </mxCell>
        <mxCell id="WCyTxkRo7AWVwZsTxRD0-28" style="edgeStyle=orthogonalEdgeStyle;rounded=0;orthogonalLoop=1;jettySize=auto;html=1;entryX=0.5;entryY=0;entryDx=0;entryDy=0;" edge="1" parent="1" source="WCyTxkRo7AWVwZsTxRD0-11" target="WCyTxkRo7AWVwZsTxRD0-26">
          <mxGeometry relative="1" as="geometry" />
        </mxCell>
        <mxCell id="WCyTxkRo7AWVwZsTxRD0-11" value="ECR Image" style="shape=image;verticalLabelPosition=bottom;labelBackgroundColor=default;verticalAlign=top;aspect=fixed;imageAspect=0;image=https://miro.medium.com/v2/resize:fit:908/1*w4N8NNxnCo-qhADUe5BsGQ.png;fontSize=22;fontStyle=0" vertex="1" parent="1">
          <mxGeometry x="702.5" y="65" width="89.8" height="90" as="geometry" />
        </mxCell>
        <mxCell id="WCyTxkRo7AWVwZsTxRD0-41" style="edgeStyle=orthogonalEdgeStyle;rounded=0;orthogonalLoop=1;jettySize=auto;html=1;" edge="1" parent="1" source="WCyTxkRo7AWVwZsTxRD0-21" target="WCyTxkRo7AWVwZsTxRD0-37">
          <mxGeometry relative="1" as="geometry" />
        </mxCell>
        <mxCell id="WCyTxkRo7AWVwZsTxRD0-21" value="Lambda" style="shape=image;verticalLabelPosition=bottom;labelBackgroundColor=default;verticalAlign=top;aspect=fixed;imageAspect=0;image=https://www.logicata.com/wp-content/uploads/2023/03/AWS_Lambda_logo.png;fontSize=22;" vertex="1" parent="1">
          <mxGeometry x="419.8" y="250" width="90" height="90" as="geometry" />
        </mxCell>
        <mxCell id="WCyTxkRo7AWVwZsTxRD0-45" style="edgeStyle=orthogonalEdgeStyle;rounded=0;orthogonalLoop=1;jettySize=auto;html=1;" edge="1" parent="1" source="WCyTxkRo7AWVwZsTxRD0-26" target="WCyTxkRo7AWVwZsTxRD0-44">
          <mxGeometry relative="1" as="geometry">
            <Array as="points">
              <mxPoint x="747" y="430" />
              <mxPoint x="560" y="430" />
            </Array>
          </mxGeometry>
        </mxCell>
        <mxCell id="WCyTxkRo7AWVwZsTxRD0-26" value="Lambda" style="shape=image;verticalLabelPosition=bottom;labelBackgroundColor=default;verticalAlign=top;aspect=fixed;imageAspect=0;image=https://www.logicata.com/wp-content/uploads/2023/03/AWS_Lambda_logo.png;fontSize=22;" vertex="1" parent="1">
          <mxGeometry x="702.3" y="250" width="90" height="90" as="geometry" />
        </mxCell>
        <mxCell id="WCyTxkRo7AWVwZsTxRD0-38" style="edgeStyle=orthogonalEdgeStyle;rounded=0;orthogonalLoop=1;jettySize=auto;html=1;entryX=0;entryY=0.5;entryDx=0;entryDy=0;" edge="1" parent="1" source="WCyTxkRo7AWVwZsTxRD0-29" target="WCyTxkRo7AWVwZsTxRD0-37">
          <mxGeometry relative="1" as="geometry" />
        </mxCell>
        <mxCell id="WCyTxkRo7AWVwZsTxRD0-29" value="Embedding&#xa;text files" style="shape=image;verticalLabelPosition=bottom;labelBackgroundColor=default;verticalAlign=top;aspect=fixed;imageAspect=0;image=https://www.freeiconspng.com/thumbs/document-icon/document-icon-9.png;fontSize=22;" vertex="1" parent="1">
          <mxGeometry x="235" y="532" width="90" height="90" as="geometry" />
        </mxCell>
        <mxCell id="WCyTxkRo7AWVwZsTxRD0-47" style="edgeStyle=orthogonalEdgeStyle;rounded=0;orthogonalLoop=1;jettySize=auto;html=1;entryX=0.5;entryY=1;entryDx=0;entryDy=0;" edge="1" parent="1" source="WCyTxkRo7AWVwZsTxRD0-31" target="WCyTxkRo7AWVwZsTxRD0-26">
          <mxGeometry relative="1" as="geometry" />
        </mxCell>
        <mxCell id="WCyTxkRo7AWVwZsTxRD0-31" value="S3 Static Web Host" style="shape=image;verticalLabelPosition=bottom;labelBackgroundColor=default;verticalAlign=top;aspect=fixed;imageAspect=0;image=https://static-00.iconduck.com/assets.00/storage-amazons3-bucketwithobjects-icon-1980x2048-zhy8pqwd.png;fontSize=22;" vertex="1" parent="1">
          <mxGeometry x="693" y="938" width="107.3" height="111" as="geometry" />
        </mxCell>
        <mxCell id="WCyTxkRo7AWVwZsTxRD0-35" style="edgeStyle=orthogonalEdgeStyle;rounded=0;orthogonalLoop=1;jettySize=auto;html=1;entryX=-0.002;entryY=0.436;entryDx=0;entryDy=0;entryPerimeter=0;" edge="1" parent="1" source="WCyTxkRo7AWVwZsTxRD0-8" target="WCyTxkRo7AWVwZsTxRD0-31">
          <mxGeometry relative="1" as="geometry" />
        </mxCell>
        <mxCell id="WCyTxkRo7AWVwZsTxRD0-36" value="" style="shape=image;verticalLabelPosition=bottom;labelBackgroundColor=default;verticalAlign=top;imageAspect=0;image=https://www.10bestdesign.com/blog/content/images/2018/03/20.png;imageBorder=none;strokeWidth=0;" vertex="1" parent="1">
          <mxGeometry x="550" y="840" width="200" height="140" as="geometry" />
        </mxCell>
        <mxCell id="WCyTxkRo7AWVwZsTxRD0-40" style="edgeStyle=orthogonalEdgeStyle;rounded=0;orthogonalLoop=1;jettySize=auto;html=1;entryX=0.5;entryY=1;entryDx=0;entryDy=0;" edge="1" parent="1" source="WCyTxkRo7AWVwZsTxRD0-37" target="WCyTxkRo7AWVwZsTxRD0-21">
          <mxGeometry relative="1" as="geometry" />
        </mxCell>
        <mxCell id="WCyTxkRo7AWVwZsTxRD0-37" value="S3 Bucket" style="shape=image;verticalLabelPosition=bottom;labelBackgroundColor=default;verticalAlign=top;aspect=fixed;imageAspect=0;image=https://static-00.iconduck.com/assets.00/storage-amazons3-bucketwithobjects-icon-1980x2048-zhy8pqwd.png;fontSize=22;" vertex="1" parent="1">
          <mxGeometry x="410.65999999999997" y="520" width="108.27" height="112" as="geometry" />
        </mxCell>
        <mxCell id="WCyTxkRo7AWVwZsTxRD0-44" value="Embedding Files" style="shape=image;verticalLabelPosition=bottom;labelBackgroundColor=default;verticalAlign=top;aspect=fixed;imageAspect=0;image=https://seeklogo.com/images/A/amazon-database-logo-BAA099F432-seeklogo.com.png;fontSize=18;" vertex="1" parent="1">
          <mxGeometry x="530" y="510" width="60" height="68.69" as="geometry" />
        </mxCell>
      </root>
    </mxGraphModel>
  </diagram>
</mxfile>
